<svg width="52" height="38" viewBox="0 0 52 38" fill="none" xmlns="http://www.w3.org/2000/svg">
<path d="M1.384 37.344C1.21333 37.344 1.08533 37.3013 1 37.216C0.872 37.1307 0.850667 37.0667 0.936 37.024C1.91733 36.256 2.728 35.488 3.368 34.72C4.05067 33.952 4.73333 32.9707 5.416 31.776L6.312 30.24C7.16533 28.7893 8.12533 27.1253 9.192 25.248C10.2587 23.3707 11.3253 21.472 12.392 19.552C13.5013 17.632 14.504 15.8613 15.4 14.24C16.3387 12.6187 17.0853 11.3173 17.64 10.336C18.1947 9.312 18.472 8.8 18.472 8.8C19.624 6.79467 20.8827 5.28 22.248 4.256C23.656 3.18933 24.8933 2.50667 25.96 2.208C22.8453 2.25067 20.072 2.48533 17.64 2.912C15.208 3.33867 13.5653 4.34133 12.712 5.92C12.5413 6.21866 12.4133 6.56 12.328 6.944C12.2853 7.28533 12.264 7.62667 12.264 7.968C12.264 9.07733 12.5627 9.86666 13.16 10.336C13.2027 10.3787 13.224 10.4213 13.224 10.464C13.224 10.5493 13.1387 10.6347 12.968 10.72C12.84 10.8053 12.712 10.8267 12.584 10.784C12.2 10.5707 11.7307 10.0587 11.176 9.248C10.6213 8.39467 10.28 7.69066 10.152 7.136C10.024 6.624 9.96 6.15466 9.96 5.728C9.96 4.576 10.3653 3.68 11.176 3.04C11.9867 2.4 12.968 1.952 14.12 1.696C15.3147 1.44 16.5307 1.29066 17.768 1.248C19.0053 1.20533 20.0293 1.184 20.84 1.184H23.4C24.2533 1.184 25.1707 1.184 26.152 1.184C27.176 1.14133 28.0293 1.056 28.712 0.927998H28.968C29.224 0.927998 29.416 1.01333 29.544 1.184C29.672 1.35467 29.736 1.52533 29.736 1.696C29.736 2.03733 29.5867 2.208 29.288 2.208C29.1173 2.208 28.968 2.208 28.84 2.208C28.7547 2.16533 28.6267 2.144 28.456 2.144C26.4933 2.144 24.5307 3.85066 22.568 7.264C22.568 7.264 22.3333 7.648 21.864 8.416C21.4373 9.14133 20.8827 10.08 20.2 11.232C19.56 12.384 18.8773 13.6 18.152 14.88C17.4267 16.16 16.7867 17.312 16.232 18.336C15.08 20.4693 13.8427 22.7947 12.52 25.312C11.24 27.7867 9.91733 30.368 8.552 33.056C8.25333 33.568 7.99733 34.1653 7.784 34.848C7.57067 35.488 7.25067 35.808 6.824 35.808C6.65333 35.808 6.44 35.7867 6.184 35.744C5.928 35.7013 5.65067 35.68 5.352 35.68C4.62667 35.68 3.96533 35.808 3.368 36.064C2.81333 36.32 2.23733 36.7253 1.64 37.28C1.59733 37.3227 1.512 37.344 1.384 37.344ZM29.288 36.704C28.2213 36.704 27.1333 36.3627 26.024 35.68C24.9147 34.9547 23.784 33.8453 22.632 32.352C21.2667 30.5173 20.1147 28.7467 19.176 27.04C18.2373 25.2907 17.4693 23.776 16.872 22.496C16.3173 21.216 15.8907 20.2987 15.592 19.744C17.9813 17.5253 20.4347 15.5413 22.952 13.792C25.512 12.0427 28.0507 10.3787 30.568 8.8C32.2747 7.776 34.1093 6.64533 36.072 5.408C38.0347 4.128 40.0187 3.06133 42.024 2.208C43.432 1.61066 44.7973 1.312 46.12 1.312C46.7173 1.312 47.3147 1.376 47.912 1.504C48.5093 1.58933 49.0853 1.73867 49.64 1.952C50.0667 2.08 50.5573 2.35733 51.112 2.784C51.6667 3.168 51.9013 3.616 51.816 4.128C51.816 4.29867 51.7307 4.384 51.56 4.384C51.3467 4.384 51.1547 4.256 50.984 4C50.8133 3.744 50.5573 3.488 50.216 3.232C49.8747 2.976 49.3413 2.848 48.616 2.848C47.6773 2.848 46.632 3.04 45.48 3.424C44.3707 3.808 43.3893 4.17067 42.536 4.512C40.8293 5.23733 39.0373 6.02667 37.16 6.88C35.2827 7.73333 33.512 8.62933 31.848 9.568C30.3547 10.3787 28.776 11.3173 27.112 12.384C25.448 13.4507 23.8267 14.5387 22.248 15.648C20.712 16.7147 19.3253 17.696 18.088 18.592C18.344 19.232 18.7707 20.192 19.368 21.472C19.9653 22.752 20.7547 24.2027 21.736 25.824C22.7173 27.4027 23.8693 29.0027 25.192 30.624C26.1733 31.8187 27.1333 32.6933 28.072 33.248C29.0533 33.76 29.9707 34.016 30.824 34.016C31.976 34.016 33.0427 33.696 34.024 33.056C35.048 32.3733 36.008 31.52 36.904 30.496C37.8427 29.472 38.7173 28.4267 39.528 27.36C39.7413 27.104 39.8907 26.976 39.976 26.976C40.1467 26.976 40.232 27.0827 40.232 27.296C40.232 27.552 40.1253 27.808 39.912 28.064C38.0347 30.6667 36.2213 32.7573 34.472 34.336C32.7653 35.9147 31.0373 36.704 29.288 36.704Z" fill="black"/>
</svg>
