<svg id="logo" xmlns="http://www.w3.org/2000/svg" width="73.73" height="92.038" viewBox="0 0 73.73 92.038">
  <g id="グループ_7" data-name="グループ 7">
    <g id="グループ_36" data-name="グループ 36">
      <circle id="楕円形_1" data-name="楕円形 1" cx="33.207" cy="33.207" r="33.207" transform="translate(3.658 3.658)" fill="#72c048"/>
      <path id="パス_1" data-name="パス 1" d="M16.543,85.133a11.892,11.892,0,0,0,0-16.813A11.892,11.892,0,0,0,16.543,85.133Z" transform="translate(-7.434 -38.883)" fill="#fff"/>
      <path id="パス_2" data-name="パス 2" d="M79.089,35.278a16.8,16.8,0,0,0,0-23.758A16.8,16.8,0,0,0,79.089,35.278Z" transform="translate(-42.211 -6.556)" fill="#fff"/>
      <path id="パス_3" data-name="パス 3" d="M58.449,40.984a9.417,9.417,0,0,0,0-13.314A9.417,9.417,0,0,0,58.449,40.984Z" transform="translate(-31.696 -15.748)" fill="#fff"/>
      <path id="パス_4" data-name="パス 4" d="M57.1,79.826a12.909,12.909,0,0,0,0-18.256A12.909,12.909,0,0,0,57.1,79.826Z" transform="translate(-30.343 -35.041)" fill="#fff"/>
      <path id="パス_5" data-name="パス 5" d="M33.957,57.632a16.167,16.167,0,0,0,0-22.862A16.167,16.167,0,0,0,33.957,57.632Z" transform="translate(-16.631 -19.789)" fill="#fff"/>
      <path id="パス_6" data-name="パス 6" d="M81.693,85.545a10.072,10.072,0,0,0,0-14.245A10.072,10.072,0,0,0,81.693,85.545Z" transform="translate(-44.815 -40.579)" fill="#fff"/>
      <path id="パス_7" data-name="パス 7" d="M35.843,107.828a11.294,11.294,0,0,0,0-15.968A11.294,11.294,0,0,0,35.843,107.828Z" transform="translate(-18.518 -52.28)" fill="#fff"/>
      <path id="パス_8" data-name="パス 8" d="M145.453,85.133a11.892,11.892,0,0,1,0-16.813A11.892,11.892,0,0,1,145.453,85.133Z" transform="translate(-80.801 -38.883)" fill="#fff"/>
      <path id="パス_9" data-name="パス 9" d="M105.459,40.984a9.417,9.417,0,0,1,0-13.314A9.417,9.417,0,0,1,105.459,40.984Z" transform="translate(-58.451 -15.748)" fill="#fff"/>
      <path id="パス_10" data-name="パス 10" d="M104.106,79.826a12.909,12.909,0,0,1,0-18.256A12.909,12.909,0,0,1,104.106,79.826Z" transform="translate(-57.098 -35.041)" fill="#fff"/>
      <path id="パス_11" data-name="パス 11" d="M124.727,57.632a16.167,16.167,0,0,1,0-22.862A16.167,16.167,0,0,1,124.727,57.632Z" transform="translate(-68.291 -19.789)" fill="#fff"/>
      <path id="パス_12" data-name="パス 12" d="M126.613,107.828a11.294,11.294,0,0,1,0-15.968A11.294,11.294,0,0,1,126.613,107.828Z" transform="translate(-70.178 -52.28)" fill="#fff"/>
      <g id="グループ_1" data-name="グループ 1" transform="translate(10.482 10.655)">
        <path id="パス_13" data-name="パス 13" d="M91.964,36.967a8.655,8.655,0,0,0,0-12.237A8.655,8.655,0,0,0,91.964,36.967Z" transform="translate(-61.379 -24.73)" fill="#72c048"/>
        <path id="パス_14" data-name="パス 14" d="M46.668,60.594a7.586,7.586,0,0,0,0-10.724A7.586,7.586,0,0,0,46.668,60.594Z" transform="translate(-35.778 -39.038)" fill="#72c048"/>
        <path id="パス_15" data-name="パス 15" d="M137.578,60.594a7.586,7.586,0,0,0,0-10.724A7.586,7.586,0,0,0,137.578,60.594Z" transform="translate(-87.518 -39.038)" fill="#72c048"/>
        <path id="パス_16" data-name="パス 16" d="M135.79,108.008a5.274,5.274,0,0,0,0-7.458A5.274,5.274,0,0,0,135.79,108.008Z" transform="translate(-86.885 -67.881)" fill="#72c048"/>
        <path id="パス_17" data-name="パス 17" d="M45.02,108.008a5.274,5.274,0,0,0,0-7.458A5.274,5.274,0,0,0,45.02,108.008Z" transform="translate(-35.225 -67.881)" fill="#72c048"/>
        <path id="パス_18" data-name="パス 18" d="M67.009,81.4a6.033,6.033,0,0,0,0-8.527A6.033,6.033,0,0,0,67.009,81.4Z" transform="translate(-47.615 -52.128)" fill="#72c048"/>
        <path id="パス_19" data-name="パス 19" d="M114.489,81.4a6.033,6.033,0,0,0,0-8.527A6.033,6.033,0,0,0,114.489,81.4Z" transform="translate(-74.637 -52.128)" fill="#72c048"/>
        <path id="パス_20" data-name="パス 20" d="M155.243,85.58a5.552,5.552,0,0,0,0-7.85A5.552,5.552,0,0,0,155.243,85.58Z" transform="translate(-97.91 -54.894)" fill="#72c048"/>
        <path id="パス_21" data-name="パス 21" d="M25.953,85.58a5.552,5.552,0,0,0,0-7.85A5.552,5.552,0,0,0,25.953,85.58Z" transform="translate(-24.327 -54.894)" fill="#72c048"/>
        <path id="パス_22" data-name="パス 22" d="M88.756,87.521a5.438,5.438,0,0,0,0-7.691A5.438,5.438,0,0,0,88.756,87.521Z" transform="translate(-60.089 -56.089)" fill="#72c048"/>
        <path id="パス_23" data-name="パス 23" d="M65.837,42.127a4.392,4.392,0,0,0,0-6.217A4.392,4.392,0,0,0,65.837,42.127Z" transform="translate(-47.218 -31.093)" fill="#72c048"/>
        <path id="パス_24" data-name="パス 24" d="M112.717,42.127a4.392,4.392,0,0,0,0-6.217A4.392,4.392,0,0,0,112.717,42.127Z" transform="translate(-73.899 -31.093)" fill="#72c048"/>
      </g>
      <path id="パス_25" data-name="パス 25" d="M83.175,122.252a13.474,13.474,0,0,0-2.818-14.912,13.476,13.476,0,0,0-2.818,14.912l2.818,7.9Z" transform="translate(-43.492 -61.09)" fill="#fff"/>
      <path id="パス_49" data-name="パス 49" d="M36.865,73.73A36.865,36.865,0,1,1,73.73,36.865,36.909,36.909,0,0,1,36.865,73.73Zm0-71.869a35,35,0,1,0,35,35,35.041,35.041,0,0,0-35-35Z" fill="#72c048"/>
    </g>
    <g id="グループ_4" data-name="グループ 4" transform="translate(5.14 77.871)">
      <g id="グループ_2" data-name="グループ 2" transform="translate(38.201 0.185)">
        <path id="パス_26" data-name="パス 26" d="M102.839,188.291v-6.265H100.59v-.866h5.476v.866h-2.249v6.265h-.974Z" transform="translate(-100.59 -181.16)" fill="#052d47"/>
        <path id="パス_27" data-name="パス 27" d="M116.44,181.16h2.766a5.556,5.556,0,0,1,.991.06,1.925,1.925,0,0,1,.569.194,1.627,1.627,0,0,1,.685.689,2.18,2.18,0,0,1,.233,1.034,1.862,1.862,0,0,1-.246.987,1.665,1.665,0,0,1-.737.642.992.992,0,0,1,.595.392,2.125,2.125,0,0,1,.22.935l.082,1.176a1.935,1.935,0,0,0,.1.564.49.49,0,0,0,.224.263v.2H120.8a2.453,2.453,0,0,1-.19-.952v-.03l-.056-.931a1.323,1.323,0,0,0-.306-.931,2.379,2.379,0,0,0-1.284-.211H117.4V188.3h-.957v-7.131Zm.948.836v2.417h1.655a2.1,2.1,0,0,0,1.267-.289,1.164,1.164,0,0,0,.371-.969,1.054,1.054,0,0,0-.349-.9,2.288,2.288,0,0,0-1.288-.263h-1.655Z" transform="translate(-109.611 -181.16)" fill="#052d47"/>
        <path id="パス_28" data-name="パス 28" d="M132.87,188.291V181.16h5.084v.888h-4.123v2.128h3.809v.832h-3.809V187.4h4.205v.892Z" transform="translate(-118.962 -181.16)" fill="#052d47"/>
        <path id="パス_29" data-name="パス 29" d="M148.73,188.291V181.16h5.084v.888h-4.123v2.128H153.5v.832h-3.809V187.4H153.9v.892Z" transform="translate(-127.988 -181.16)" fill="#052d47"/>
      </g>
      <g id="グループ_3" data-name="グループ 3">
        <path id="パス_30" data-name="パス 30" d="M17.57,187.09a2.866,2.866,0,0,1-1.034.866,3.088,3.088,0,0,1-1.366.289,2.955,2.955,0,0,1-2.344-1.034,4.555,4.555,0,0,1,.034-5.472,3.263,3.263,0,0,1,2.521-1.008,3.094,3.094,0,0,1,1.991.616,2.568,2.568,0,0,1,.926,1.719h-.944a1.7,1.7,0,0,0-.646-1.112,2.117,2.117,0,0,0-1.323-.392,2.247,2.247,0,0,0-1.81.758,3.893,3.893,0,0,0-.009,4.27,2.142,2.142,0,0,0,1.749.771,2.146,2.146,0,0,0,1.607-.616,2.262,2.262,0,0,0,.6-1.655V185H15.291v-.8h3.128v3.848h-.633l-.207-.952Z" transform="translate(-11.93 -180.73)" fill="#052d47"/>
        <path id="パス_31" data-name="パス 31" d="M31.37,181.16h2.766a5.556,5.556,0,0,1,.991.06,1.925,1.925,0,0,1,.569.194,1.627,1.627,0,0,1,.685.689,2.18,2.18,0,0,1,.233,1.034,1.862,1.862,0,0,1-.246.987,1.665,1.665,0,0,1-.737.642.992.992,0,0,1,.595.392,2.124,2.124,0,0,1,.22.935l.082,1.176a1.935,1.935,0,0,0,.1.564.49.49,0,0,0,.224.263v.2H35.735a2.453,2.453,0,0,1-.19-.952v-.03l-.056-.931a1.323,1.323,0,0,0-.306-.931,2.379,2.379,0,0,0-1.284-.211H32.331V188.3h-.957v-7.131Zm.948.836v2.417h1.655a2.1,2.1,0,0,0,1.267-.289,1.164,1.164,0,0,0,.371-.969,1.054,1.054,0,0,0-.349-.9A2.288,2.288,0,0,0,33.972,182H32.318Z" transform="translate(-22.994 -180.975)" fill="#052d47"/>
        <path id="パス_32" data-name="パス 32" d="M47.8,188.291V181.16h5.084v.888H48.761v2.128H52.57v.832H48.761V187.4h4.205v.892H47.8Z" transform="translate(-32.345 -180.975)" fill="#052d47"/>
        <path id="パス_33" data-name="パス 33" d="M63.66,188.291V181.16h5.084v.888H64.621v2.128H68.43v.832H64.621V187.4h4.205v.892H63.66Z" transform="translate(-41.371 -180.975)" fill="#052d47"/>
        <path id="パス_34" data-name="パス 34" d="M79.49,188.291V181.16h1.06l3.331,5.179c.073.112.138.22.194.319a1.755,1.755,0,0,1,.129.28V181.16h.926v7.131H84.079l-3.4-5.252a2.872,2.872,0,0,1-.142-.25c-.043-.086-.086-.181-.125-.276v5.778Z" transform="translate(-50.38 -180.975)" fill="#052d47"/>
      </g>
    </g>
    <g id="グループ_5" data-name="グループ 5" transform="translate(17.506 89.966)">
      <path id="パス_35" data-name="パス 35" d="M41.466,209.576c0,.19.009.78-.418.78s-.418-.582-.418-.78c0-.25.017-.776.418-.776C41.474,208.8,41.466,209.377,41.466,209.576Zm-.681,0c0,.409.047.638.263.638.263,0,.263-.371.263-.638,0-.284.009-.633-.263-.633S40.785,209.352,40.785,209.576Z" transform="translate(-40.63 -208.8)" fill="#052d47"/>
      <path id="パス_36" data-name="パス 36" d="M45.6,208.84h.409a.366.366,0,0,1,.34.4.415.415,0,0,1-.263.427l.315.651-.138.065-.34-.7h-.172v.672H45.6V208.84Zm.151.7h.224c.134,0,.215-.1.215-.3s-.095-.267-.25-.267h-.185v.569Z" transform="translate(-43.459 -208.823)" fill="#052d47"/>
      <path id="パス_37" data-name="パス 37" d="M50.623,208.978h-.2v-.138h.564v.138h-.207v1.241h.207v.138H50.42v-.138h.2Z" transform="translate(-46.202 -208.823)" fill="#052d47"/>
      <path id="パス_38" data-name="パス 38" d="M55.66,210.222a.587.587,0,0,1-.353.134c-.392,0-.457-.474-.457-.776,0-.284.065-.78.444-.78a.445.445,0,0,1,.379.241l-.134.082a.3.3,0,0,0-.254-.181c-.25,0-.276.461-.276.642,0,.521.151.625.3.625a.335.335,0,0,0,.2-.069v-.457h-.284v-.138h.435v.672Z" transform="translate(-48.723 -208.8)" fill="#052d47"/>
      <path id="パス_39" data-name="パス 39" d="M60.093,208.978h-.2v-.138h.564v.138h-.207v1.241h.207v.138H59.89v-.138h.2Z" transform="translate(-51.591 -208.823)" fill="#052d47"/>
      <path id="パス_40" data-name="パス 40" d="M64.36,208.84h.19L65,210.115h0l-.009-.345v-.931h.151v1.512h-.19l-.448-1.275h0l.009.349v.931H64.36v-1.512Z" transform="translate(-54.135 -208.823)" fill="#052d47"/>
      <path id="パス_41" data-name="パス 41" d="M69.187,209.887l-.116.5-.151-.039.383-1.5h.181l.383,1.5-.151.039-.116-.5h-.414Zm.207-.844h0l-.168.707h.34Z" transform="translate(-56.731 -208.823)" fill="#052d47"/>
      <path id="パス_42" data-name="パス 42" d="M74.064,208.84h.151v1.379h.62v.138H74.06v-1.512Z" transform="translate(-59.656 -208.823)" fill="#052d47"/>
    </g>
    <g id="グループ_6" data-name="グループ 6" transform="translate(34.108 89.216)">
      <path id="パス_43" data-name="パス 43" d="M79.16,207.406v-.246h.724c.552,0,.875.241.875,1.374,0,.6-.034,1.37-.866,1.37H79.16v-.246h.224V207.41H79.16Zm.5,2.249h.224c.332,0,.59-.086.59-1.125s-.28-1.129-.521-1.129H79.66v2.249Z" transform="translate(-79.16 -207.117)" fill="#052d47"/>
      <path id="パス_44" data-name="パス 44" d="M88.12,207.154h1.336v.246H88.4v.9h.875v.246H88.4v1.1h1.06v.246H88.12V207.15Z" transform="translate(-84.259 -207.111)" fill="#052d47"/>
      <path id="パス_45" data-name="パス 45" d="M97.576,207.728c-.047-.2-.142-.405-.379-.405-.259,0-.362.211-.362.439s.047.293.478.552c.336.2.569.371.569.793a.691.691,0,0,1-.689.776c-.487,0-.664-.323-.7-.758l.276-.039c.039.306.1.534.435.534.237,0,.409-.159.409-.491,0-.362-.233-.487-.517-.651-.315-.185-.526-.315-.526-.72a.653.653,0,0,1,.638-.7c.392,0,.577.276.646.62l-.267.043Z" transform="translate(-89.023 -207.06)" fill="#052d47"/>
      <path id="パス_46" data-name="パス 46" d="M105.891,207.406h-.371v-.246h1.021v.246h-.375v2.249h.375v.246H105.52v-.246h.371Z" transform="translate(-94.162 -207.117)" fill="#052d47"/>
      <path id="パス_47" data-name="パス 47" d="M115.049,209.651a1.048,1.048,0,0,1-.638.237c-.707,0-.832-.857-.832-1.4,0-.513.121-1.413.8-1.413a.8.8,0,0,1,.685.439l-.241.146a.538.538,0,0,0-.461-.327c-.457,0-.5.84-.5,1.163,0,.944.276,1.137.547,1.137a.587.587,0,0,0,.358-.129v-.827h-.513v-.246h.788v1.224Z" transform="translate(-98.749 -207.066)" fill="#052d47"/>
      <path id="パス_48" data-name="パス 48" d="M122.25,207.16h.345l.814,2.309.009-.009-.013-.612V207.16h.276V209.9h-.345l-.814-2.314-.009.009.013.62V209.9h-.276Z" transform="translate(-103.684 -207.117)" fill="#052d47"/>
    </g>
  </g>
</svg>
