<svg width="126" height="31" viewBox="0 0 126 31" fill="none" xmlns="http://www.w3.org/2000/svg">
<g filter="url(#filter0_d_126_139)">
<path d="M9.58203 9.47266L8.9375 13.1172C8.92969 13.1641 8.92188 13.2227 8.91406 13.293C8.86719 13.6133 8.84375 13.8438 8.84375 13.9844C8.84375 14.4453 8.95703 14.7695 9.18359 14.957C9.41016 15.1367 9.80859 15.2266 10.3789 15.2266C10.4023 15.2266 10.4414 15.2227 10.4961 15.2148C10.5586 15.207 10.6055 15.2031 10.6367 15.2031C10.6836 15.2031 10.7188 15.207 10.7422 15.2148C10.7656 15.2148 10.7852 15.2188 10.8008 15.2266L10.6836 16C9.99609 15.9531 9.39062 15.918 8.86719 15.8945C8.34375 15.8711 7.91016 15.8594 7.56641 15.8594C7.28516 15.8594 6.89844 15.8711 6.40625 15.8945C5.92188 15.918 5.33984 15.9531 4.66016 16L4.78906 15.2266H5.09375C5.625 15.2266 5.99219 15.1406 6.19531 14.9688C6.40625 14.7891 6.58203 14.2852 6.72266 13.457L8.69141 2.61719C8.73047 2.42969 8.76172 2.25391 8.78516 2.08984C8.80859 1.92578 8.82031 1.82031 8.82031 1.77344C8.82031 1.41406 8.69922 1.16016 8.45703 1.01172C8.22266 0.863281 7.82422 0.789062 7.26172 0.789062L7.40234 0.015625C7.98828 0.0546875 8.48438 0.0859375 8.89062 0.109375C9.30469 0.125 9.67188 0.132812 9.99219 0.132812C10.4219 0.132812 11.0508 0.113281 11.8789 0.0742188C12.7148 0.0351562 13.332 0.015625 13.7305 0.015625C15.207 0.015625 16.3828 0.390625 17.2578 1.14062C18.1406 1.89062 18.582 2.89062 18.582 4.14062C18.582 5.73438 17.918 7.03906 16.5898 8.05469C15.2695 9.0625 13.5352 9.56641 11.3867 9.56641C11.0586 9.56641 10.7461 9.55859 10.4492 9.54297C10.1523 9.52734 9.86328 9.50391 9.58203 9.47266ZM9.78125 8.48828C9.85938 8.49609 9.96875 8.50391 10.1094 8.51172C10.7578 8.55859 11.2148 8.58203 11.4805 8.58203C12.9648 8.58203 14.1328 8.20703 14.9844 7.45703C15.8359 6.70703 16.2617 5.68359 16.2617 4.38672C16.2617 3.37109 15.9336 2.57812 15.2773 2.00781C14.6289 1.42969 13.7227 1.14062 12.5586 1.14062C12.418 1.14062 12.2227 1.14844 11.9727 1.16406C11.7227 1.17188 11.4062 1.19141 11.0234 1.22266C10.75 2.69141 10.4062 4.66406 9.99219 7.14062C9.89844 7.75 9.82812 8.19922 9.78125 8.48828ZM19.625 16.3164C20.1172 14.2852 20.5 12.4922 20.7734 10.9375C21.0469 9.375 21.1836 8.19922 21.1836 7.41016C21.1836 7.07422 21.1328 6.82422 21.0312 6.66016C20.9375 6.48828 20.7969 6.40234 20.6094 6.40234C20.4688 6.40234 20.0742 6.60547 19.4258 7.01172L19.332 7.07031L18.9219 6.40234L19.0977 6.27344C20.5039 5.21875 21.4141 4.69141 21.8281 4.69141C22.2109 4.69141 22.4844 4.81641 22.6484 5.06641C22.8203 5.30859 22.9062 5.71484 22.9062 6.28516C22.9062 6.78516 22.8906 7.25391 22.8594 7.69141C22.8281 8.12109 22.7812 8.49219 22.7188 8.80469C23.7891 7.03906 24.5508 5.91406 25.0039 5.42969C25.457 4.9375 25.8789 4.69141 26.2695 4.69141C26.5352 4.69141 26.7578 4.78906 26.9375 4.98438C27.1172 5.17969 27.207 5.41797 27.207 5.69922C27.207 5.87109 27.1602 6.08203 27.0664 6.33203C26.9805 6.57422 26.793 6.98047 26.5039 7.55078C26.3633 7.35547 26.2188 7.21094 26.0703 7.11719C25.9219 7.02344 25.7734 6.97656 25.625 6.97656C25.3359 6.97656 24.9922 7.17969 24.5938 7.58594C24.2031 7.98438 23.5859 8.78906 22.7422 10C22.4766 11.0781 22.2539 12.1055 22.0742 13.082C21.8945 14.0508 21.7578 14.9688 21.6641 15.8359L19.625 16.3164ZM32.6914 5.80469C31.7852 5.80469 31.0039 6.42578 30.3477 7.66797C29.6914 8.91016 29.3633 10.4414 29.3633 12.2617C29.3633 13.2227 29.5273 13.957 29.8555 14.4648C30.1914 14.9727 30.6758 15.2266 31.3086 15.2266C32.2617 15.2266 33.0703 14.6172 33.7344 13.3984C34.4062 12.1719 34.7422 10.6719 34.7422 8.89844C34.7422 7.84375 34.5742 7.06641 34.2383 6.56641C33.9023 6.05859 33.3867 5.80469 32.6914 5.80469ZM33.1953 4.66797C34.3594 4.66797 35.2422 5.03125 35.8438 5.75781C36.4531 6.47656 36.7578 7.53125 36.7578 8.92188C36.7578 9.71875 36.6016 10.5703 36.2891 11.4766C35.9766 12.375 35.5547 13.1875 35.0234 13.9141C34.4531 14.6953 33.8047 15.2969 33.0781 15.7188C32.3594 16.1328 31.6016 16.3398 30.8047 16.3398C29.7578 16.3398 28.9219 15.9609 28.2969 15.2031C27.6797 14.4453 27.3711 13.4297 27.3711 12.1562C27.3711 11.2109 27.5234 10.2891 27.8281 9.39062C28.1328 8.49219 28.5703 7.67969 29.1406 6.95312C29.7031 6.22656 30.3398 5.66406 31.0508 5.26562C31.7695 4.86719 32.4844 4.66797 33.1953 4.66797ZM41.3633 16.1875C40.2227 16.7734 39.4414 17.2617 39.0195 17.6523C38.5977 18.0508 38.3867 18.4688 38.3867 18.9062C38.3867 19.4688 38.7344 19.9531 39.4297 20.3594C40.125 20.7656 40.9844 20.9688 42.0078 20.9688C42.9297 20.9688 43.6953 20.7617 44.3047 20.3477C44.9219 19.9414 45.2305 19.4375 45.2305 18.8359C45.2305 18.2422 44.2773 17.5156 42.3711 16.6562C41.9414 16.4609 41.6055 16.3047 41.3633 16.1875ZM43.3086 5.55859C42.5586 5.55859 41.9297 5.98047 41.4219 6.82422C40.9219 7.66016 40.6719 8.70312 40.6719 9.95312C40.6719 10.6016 40.8086 11.1016 41.082 11.4531C41.3633 11.7969 41.7617 11.9688 42.2773 11.9688C43.0742 11.9688 43.7266 11.5625 44.2344 10.75C44.75 9.9375 45.0078 8.90234 45.0078 7.64453C45.0078 6.98828 44.8594 6.47656 44.5625 6.10938C44.2656 5.74219 43.8477 5.55859 43.3086 5.55859ZM48.7109 4.79688L48.207 6.10938C48.1914 6.10938 48.168 6.11328 48.1367 6.12109C47.832 6.14453 47.5977 6.15625 47.4336 6.15625C47.2305 6.15625 46.7617 6.10156 46.0273 5.99219H45.9922C46.3047 6.27344 46.5312 6.58203 46.6719 6.91797C46.8125 7.25391 46.8828 7.66406 46.8828 8.14844C46.8828 9.0625 46.6406 9.875 46.1562 10.5859C45.6797 11.2969 45.0117 11.8281 44.1523 12.1797C43.9414 12.2656 43.6523 12.3867 43.2852 12.543C41.5898 13.2305 40.7422 13.6797 40.7422 13.8906C40.7422 14.0938 41.1836 14.3672 42.0664 14.7109C42.3711 14.8281 42.6094 14.9219 42.7812 14.9922C44.6328 15.75 45.8164 16.3477 46.332 16.7852C46.8555 17.2305 47.1172 17.7539 47.1172 18.3555C47.1172 19.3477 46.4922 20.2461 45.2422 21.0508C44 21.8633 42.5469 22.2695 40.8828 22.2695C39.5859 22.2695 38.5273 21.9805 37.707 21.4023C36.8789 20.8242 36.4648 20.0938 36.4648 19.2109C36.4648 18.625 36.7695 18.0703 37.3789 17.5469C37.9883 17.0312 39.0352 16.4453 40.5195 15.7891C39.8789 15.5 39.4141 15.2383 39.125 15.0039C38.8438 14.7617 38.7031 14.5195 38.7031 14.2773C38.7031 14.043 38.8672 13.8047 39.1953 13.5625C39.5234 13.3203 40.2383 12.957 41.3398 12.4727C41.293 12.4805 41.2422 12.4883 41.1875 12.4961C41.1406 12.4961 41.0625 12.4961 40.9531 12.4961C40.2578 12.4961 39.7109 12.2656 39.3125 11.8047C38.9219 11.3359 38.7266 10.6875 38.7266 9.85938C38.7266 8.42969 39.1992 7.20703 40.1445 6.19141C41.0977 5.17578 42.2383 4.66797 43.5664 4.66797C43.9961 4.66797 44.5742 4.73438 45.3008 4.86719C46.0273 4.99219 46.5391 5.05469 46.8359 5.05469C47.0703 5.05469 47.3398 5.03516 47.6445 4.99609C47.957 4.94922 48.3125 4.88281 48.7109 4.79688ZM49.7422 16.3164C50.2344 14.2852 50.6172 12.4922 50.8906 10.9375C51.1641 9.375 51.3008 8.19922 51.3008 7.41016C51.3008 7.07422 51.25 6.82422 51.1484 6.66016C51.0547 6.48828 50.9141 6.40234 50.7266 6.40234C50.5859 6.40234 50.1914 6.60547 49.543 7.01172L49.4492 7.07031L49.0391 6.40234L49.2148 6.27344C50.6211 5.21875 51.5312 4.69141 51.9453 4.69141C52.3281 4.69141 52.6016 4.81641 52.7656 5.06641C52.9375 5.30859 53.0234 5.71484 53.0234 6.28516C53.0234 6.78516 53.0078 7.25391 52.9766 7.69141C52.9453 8.12109 52.8984 8.49219 52.8359 8.80469C53.9062 7.03906 54.668 5.91406 55.1211 5.42969C55.5742 4.9375 55.9961 4.69141 56.3867 4.69141C56.6523 4.69141 56.875 4.78906 57.0547 4.98438C57.2344 5.17969 57.3242 5.41797 57.3242 5.69922C57.3242 5.87109 57.2773 6.08203 57.1836 6.33203C57.0977 6.57422 56.9102 6.98047 56.6211 7.55078C56.4805 7.35547 56.3359 7.21094 56.1875 7.11719C56.0391 7.02344 55.8906 6.97656 55.7422 6.97656C55.4531 6.97656 55.1094 7.17969 54.7109 7.58594C54.3203 7.98438 53.7031 8.78906 52.8594 10C52.5938 11.0781 52.3711 12.1055 52.1914 13.082C52.0117 14.0508 51.875 14.9688 51.7812 15.8359L49.7422 16.3164ZM64.4727 11.582C64.6133 10.8711 64.7539 10.0977 64.8945 9.26172C65.043 8.41797 65.1992 7.46484 65.3633 6.40234C65.0039 6.19922 64.7109 6.0625 64.4844 5.99219C64.2656 5.91406 64.0469 5.875 63.8281 5.875C62.8203 5.875 61.9336 6.55469 61.168 7.91406C60.4023 9.27344 60.0195 10.8789 60.0195 12.7305C60.0195 13.3164 60.082 13.7578 60.207 14.0547C60.3398 14.3438 60.5391 14.4883 60.8047 14.4883C61.0781 14.4883 61.5156 14.25 62.1172 13.7734C62.7188 13.2969 63.5039 12.5664 64.4727 11.582ZM68.5625 14.0312L67.8125 14.7578C67.2578 15.3125 66.8125 15.6992 66.4766 15.918C66.1484 16.1289 65.8516 16.2344 65.5859 16.2344C65.1875 16.2344 64.8711 16.0664 64.6367 15.7305C64.4023 15.3867 64.2852 14.918 64.2852 14.3242C64.2852 14.0977 64.293 13.8633 64.3086 13.6211C64.3242 13.3789 64.3477 13.1328 64.3789 12.8828C62.9102 14.3047 61.8828 15.2188 61.2969 15.625C60.7188 16.0312 60.2344 16.2344 59.8438 16.2344C59.25 16.2344 58.8008 15.9766 58.4961 15.4609C58.1992 14.9453 58.0508 14.1797 58.0508 13.1641C58.0508 12.2422 58.168 11.3555 58.4023 10.5039C58.6445 9.64453 58.9961 8.83594 59.457 8.07812C60.1211 7.01562 60.8828 6.20312 61.7422 5.64062C62.6094 5.07812 63.5273 4.79688 64.4961 4.79688C64.707 4.79688 64.9375 4.82031 65.1875 4.86719C65.4375 4.90625 65.7031 4.96875 65.9844 5.05469L67.625 4.36328C67.1641 6.56641 66.7969 8.54297 66.5234 10.293C66.25 12.043 66.1133 13.1914 66.1133 13.7383C66.1133 13.9883 66.1523 14.1758 66.2305 14.3008C66.3164 14.4258 66.4453 14.4883 66.6172 14.4883C66.7422 14.4883 66.9102 14.4102 67.1211 14.2539C67.332 14.0977 67.6836 13.7852 68.1758 13.3164L68.5625 14.0312ZM69.793 16.3398C70.043 15.1836 70.3203 13.75 70.625 12.0391C70.6641 11.8125 70.6914 11.6484 70.707 11.5469L70.9297 10.3398C71.0547 9.61328 71.1523 8.96094 71.2227 8.38281C71.293 7.80469 71.3281 7.41406 71.3281 7.21094C71.3281 6.97656 71.2812 6.78516 71.1875 6.63672C71.0938 6.48047 70.9727 6.40234 70.8242 6.40234C70.7383 6.40234 70.6133 6.44531 70.4492 6.53125C70.2852 6.60938 70.0117 6.77344 69.6289 7.02344L69.2891 6.40234C69.4844 6.26172 69.7539 6.05859 70.0977 5.79297C71.0977 5.02734 71.7734 4.64453 72.125 4.64453C72.4531 4.64453 72.7148 4.78516 72.9102 5.06641C73.1055 5.33984 73.2031 5.71094 73.2031 6.17969C73.2031 6.54688 73.1523 7.18359 73.0508 8.08984C73.0352 8.22266 73.0234 8.32422 73.0156 8.39453C73.2656 8.12109 73.6133 7.73828 74.0586 7.24609C75.6289 5.51172 76.6953 4.64453 77.2578 4.64453C77.7188 4.64453 78.0938 4.84375 78.3828 5.24219C78.6719 5.63281 78.8164 6.14844 78.8164 6.78906C78.8164 7.01562 78.8086 7.26562 78.793 7.53906C78.7773 7.80469 78.7461 8.12891 78.6992 8.51172C78.8242 8.37109 79.0039 8.16406 79.2383 7.89062C81.0586 5.72656 82.3281 4.64453 83.0469 4.64453C83.5156 4.64453 83.8945 4.83984 84.1836 5.23047C84.4805 5.62109 84.6289 6.13281 84.6289 6.76562C84.6289 7.67188 84.4414 8.93359 84.0664 10.5508C83.6914 12.1602 83.5039 13.2578 83.5039 13.8438C83.5039 14.0781 83.543 14.2695 83.6211 14.418C83.6992 14.5586 83.7969 14.6289 83.9141 14.6289C84.0156 14.6289 84.1992 14.5195 84.4648 14.3008C84.7383 14.0742 85.0586 13.7617 85.4258 13.3633L85.8242 14.0781C84.8633 15.0781 84.2109 15.707 83.8672 15.9648C83.5312 16.2148 83.2422 16.3398 83 16.3398C82.5547 16.3398 82.2109 16.1758 81.9688 15.8477C81.7266 15.5117 81.6055 15.043 81.6055 14.4414C81.6055 13.5586 81.8008 12.293 82.1914 10.6445C82.582 8.99609 82.7773 7.87891 82.7773 7.29297C82.7773 7.01172 82.7266 6.79297 82.625 6.63672C82.5234 6.48047 82.3828 6.40234 82.2031 6.40234C82.0234 6.40234 81.707 6.60938 81.2539 7.02344C80.8008 7.42969 79.8945 8.35938 78.5352 9.8125C78.2617 11.2812 78.0547 12.4727 77.9141 13.3867C77.7812 14.3008 77.6836 15.1016 77.6211 15.7891L75.5586 16.3398C76.0195 13.9336 76.3789 11.9414 76.6367 10.3633C76.8945 8.78516 77.0234 7.77734 77.0234 7.33984C77.0234 7.05078 76.9688 6.82422 76.8594 6.66016C76.7578 6.48828 76.6289 6.40234 76.4727 6.40234C76.2539 6.40234 75.2344 7.30078 73.4141 9.09766L72.8633 9.63672C72.5742 11.1602 72.3555 12.3828 72.207 13.3047C72.0586 14.2266 71.9531 15.0352 71.8906 15.7305L69.793 16.3398ZM87.3945 16.3398C87.6445 15.1836 87.9219 13.75 88.2266 12.0391C88.2656 11.8125 88.293 11.6484 88.3086 11.5469L88.5312 10.3398C88.6562 9.61328 88.7539 8.96094 88.8242 8.38281C88.8945 7.80469 88.9297 7.41406 88.9297 7.21094C88.9297 6.97656 88.8828 6.78516 88.7891 6.63672C88.6953 6.48047 88.5742 6.40234 88.4258 6.40234C88.3398 6.40234 88.2148 6.44531 88.0508 6.53125C87.8867 6.60938 87.6133 6.77344 87.2305 7.02344L86.8906 6.40234C87.0859 6.26172 87.3555 6.05859 87.6992 5.79297C88.6992 5.02734 89.375 4.64453 89.7266 4.64453C90.0547 4.64453 90.3164 4.78516 90.5117 5.06641C90.707 5.33984 90.8047 5.71094 90.8047 6.17969C90.8047 6.54688 90.7539 7.18359 90.6523 8.08984C90.6367 8.22266 90.625 8.32422 90.6172 8.39453C90.8672 8.12109 91.2148 7.73828 91.6602 7.24609C93.2305 5.51172 94.2969 4.64453 94.8594 4.64453C95.3203 4.64453 95.6953 4.84375 95.9844 5.24219C96.2734 5.63281 96.418 6.14844 96.418 6.78906C96.418 7.01562 96.4102 7.26562 96.3945 7.53906C96.3789 7.80469 96.3477 8.12891 96.3008 8.51172C96.4258 8.37109 96.6055 8.16406 96.8398 7.89062C98.6602 5.72656 99.9297 4.64453 100.648 4.64453C101.117 4.64453 101.496 4.83984 101.785 5.23047C102.082 5.62109 102.23 6.13281 102.23 6.76562C102.23 7.67188 102.043 8.93359 101.668 10.5508C101.293 12.1602 101.105 13.2578 101.105 13.8438C101.105 14.0781 101.145 14.2695 101.223 14.418C101.301 14.5586 101.398 14.6289 101.516 14.6289C101.617 14.6289 101.801 14.5195 102.066 14.3008C102.34 14.0742 102.66 13.7617 103.027 13.3633L103.426 14.0781C102.465 15.0781 101.812 15.707 101.469 15.9648C101.133 16.2148 100.844 16.3398 100.602 16.3398C100.156 16.3398 99.8125 16.1758 99.5703 15.8477C99.3281 15.5117 99.207 15.043 99.207 14.4414C99.207 13.5586 99.4023 12.293 99.793 10.6445C100.184 8.99609 100.379 7.87891 100.379 7.29297C100.379 7.01172 100.328 6.79297 100.227 6.63672C100.125 6.48047 99.9844 6.40234 99.8047 6.40234C99.625 6.40234 99.3086 6.60938 98.8555 7.02344C98.4023 7.42969 97.4961 8.35938 96.1367 9.8125C95.8633 11.2812 95.6562 12.4727 95.5156 13.3867C95.3828 14.3008 95.2852 15.1016 95.2227 15.7891L93.1602 16.3398C93.6211 13.9336 93.9805 11.9414 94.2383 10.3633C94.4961 8.78516 94.625 7.77734 94.625 7.33984C94.625 7.05078 94.5703 6.82422 94.4609 6.66016C94.3594 6.48828 94.2305 6.40234 94.0742 6.40234C93.8555 6.40234 92.8359 7.30078 91.0156 9.09766L90.4648 9.63672C90.1758 11.1602 89.957 12.3828 89.8086 13.3047C89.6602 14.2266 89.5547 15.0352 89.4922 15.7305L87.3945 16.3398ZM106.613 10.7148L106.73 10.6562C109.512 9.23438 110.902 8.13672 110.902 7.36328C110.902 6.94922 110.754 6.58984 110.457 6.28516C110.16 5.98047 109.812 5.82812 109.414 5.82812C108.797 5.82812 108.242 6.25391 107.75 7.10547C107.258 7.95703 106.879 9.16016 106.613 10.7148ZM110.141 9.90625L106.555 11.7578V11.875C106.555 12.8047 106.699 13.5117 106.988 13.9961C107.285 14.4805 107.711 14.7227 108.266 14.7227C108.594 14.7227 109.004 14.5781 109.496 14.2891C109.996 13.9922 110.633 13.5156 111.406 12.8594L111.816 13.5977C110.699 14.6289 109.809 15.3438 109.145 15.7422C108.488 16.1406 107.891 16.3398 107.352 16.3398C106.531 16.3398 105.867 15.9844 105.359 15.2734C104.852 14.5625 104.598 13.6289 104.598 12.4727C104.598 11.6523 104.73 10.7734 104.996 9.83594C105.27 8.89062 105.621 8.06641 106.051 7.36328C106.59 6.50391 107.207 5.83984 107.902 5.37109C108.598 4.90234 109.316 4.66797 110.059 4.66797C110.816 4.66797 111.449 4.91016 111.957 5.39453C112.473 5.87109 112.73 6.45312 112.73 7.14062C112.73 7.69531 112.574 8.15625 112.262 8.52344C111.957 8.88281 111.25 9.34375 110.141 9.90625ZM114.289 16.3164C114.781 14.2852 115.164 12.4922 115.438 10.9375C115.711 9.375 115.848 8.19922 115.848 7.41016C115.848 7.07422 115.797 6.82422 115.695 6.66016C115.602 6.48828 115.461 6.40234 115.273 6.40234C115.133 6.40234 114.738 6.60547 114.09 7.01172L113.996 7.07031L113.586 6.40234L113.762 6.27344C115.168 5.21875 116.078 4.69141 116.492 4.69141C116.875 4.69141 117.148 4.81641 117.312 5.06641C117.484 5.30859 117.57 5.71484 117.57 6.28516C117.57 6.78516 117.555 7.25391 117.523 7.69141C117.492 8.12109 117.445 8.49219 117.383 8.80469C118.453 7.03906 119.215 5.91406 119.668 5.42969C120.121 4.9375 120.543 4.69141 120.934 4.69141C121.199 4.69141 121.422 4.78906 121.602 4.98438C121.781 5.17969 121.871 5.41797 121.871 5.69922C121.871 5.87109 121.824 6.08203 121.73 6.33203C121.645 6.57422 121.457 6.98047 121.168 7.55078C121.027 7.35547 120.883 7.21094 120.734 7.11719C120.586 7.02344 120.438 6.97656 120.289 6.97656C120 6.97656 119.656 7.17969 119.258 7.58594C118.867 7.98438 118.25 8.78906 117.406 10C117.141 11.0781 116.918 12.1055 116.738 13.082C116.559 14.0508 116.422 14.9688 116.328 15.8359L114.289 16.3164Z" fill="#333333"/>
</g>
<defs>
<filter id="filter0_d_126_139" x="0.660156" y="0.015625" width="125.211" height="30.2539" filterUnits="userSpaceOnUse" color-interpolation-filters="sRGB">
<feFlood flood-opacity="0" result="BackgroundImageFix"/>
<feColorMatrix in="SourceAlpha" type="matrix" values="0 0 0 0 0 0 0 0 0 0 0 0 0 0 0 0 0 0 127 0" result="hardAlpha"/>
<feOffset dy="4"/>
<feGaussianBlur stdDeviation="2"/>
<feComposite in2="hardAlpha" operator="out"/>
<feColorMatrix type="matrix" values="0 0 0 0 0 0 0 0 0 0 0 0 0 0 0 0 0 0 0.25 0"/>
<feBlend mode="hard-light" in2="BackgroundImageFix" result="effect1_dropShadow_126_139"/>
<feBlend mode="normal" in="SourceGraphic" in2="effect1_dropShadow_126_139" result="shape"/>
</filter>
</defs>
</svg>
